<svg xmlns="http://www.w3.org/2000/svg" width="32" height="32" fill="none" viewBox="0 0 32 32"><rect width="32" height="32" fill="url(#bgGradient)" rx="8"/><path stroke="#fff" stroke-linecap="round" stroke-width="3" d="M10 10c0-1.5 1.5-3 4-3 3 0 5 1.5 5 3.5s-2 3-4 4L12 16c-2 1-3 2.5-3 4 0 2 2 4 5.5 4s5.5-1.5 5.5-3.5"/><rect width="4" height="2" x="20" y="8" fill="#fcd34d" rx="1"/><rect width="2" height="10" x="21" y="7" fill="#fff" rx="1"/><circle cx="7" cy="12" r="1.5" fill="#fcd34d" opacity=".9"/><circle cx="25" cy="18" r="1.2" fill="#fcd34d" opacity=".8"/><circle cx="8" cy="20" r="1" fill="#fbbf24" opacity=".7"/><defs><linearGradient id="bgGradient" x1="0%" x2="100%" y1="0%" y2="100%"><stop offset="0%" stop-color="#9333ea"/><stop offset="100%" stop-color="#4f46e5"/></linearGradient></defs></svg>
